<?xml version="1.0" encoding="utf-8"?><!-- Uploaded to: SVG Repo, www.svgrepo.com, Generator: SVG Repo Mixer Tools -->
<svg fill="#000000" width="800px" height="800px" viewBox="0 0 512 512" xmlns="http://www.w3.org/2000/svg"><title>ionicons-v5-a</title><path d="M368,96H144a16,16,0,0,1,0-32H368a16,16,0,0,1,0,32Z"/><path d="M400,144H112a16,16,0,0,1,0-32H400a16,16,0,0,1,0,32Z"/><path d="M419.13,448H92.87A44.92,44.92,0,0,1,48,403.13V204.87A44.92,44.92,0,0,1,92.87,160H419.13A44.92,44.92,0,0,1,464,204.87V403.13A44.92,44.92,0,0,1,419.13,448Z"/></svg>